# xmcd
#
# Track frame offsets: 
#        150
#        12597
#        24865
#        44710
#        54400
#        64757
#        75707
#        88220
#        99602
#        110945
#        125820
#        139015
#        148377
#        162427
#        173467
#        191472
#        202732
#        219605
#
# Disc length: 3153 seconds
#
# Revision: 2
# Processed by: cddbd v1.5.2PL0 Copyright (c) Steve Scherf et al.
# Submitted via: ExactAudioCopyFreeDBPlugin 1.0
#
DISCID=0b0c4f12
DTITLE=Johnny Earle - JIVE TIME
DYEAR=1900
DGENRE=Country
TTITLE0=Jive Time [Jive 42 bpm]
TTITLE1=Bloodshot Eyes [Jive 44 bpm]
TTITLE2=The Girl Can't Help It, Keep A Knockin', Jenny Jenny Jenny [Ji
TTITLE2=ve 44 bpm]
TTITLE3=Promises Promises Promises [Jive 44 bpm]
TTITLE4=Buona Sera [Jive 44 bpm]
TTITLE5=Mona Lisa [Jive 44 bpm]
TTITLE6=Sea Cruise [Jive 38 bpm]
TTITLE7=Honalulu Rock n Roll [Jive 42 bpm]
TTITLE8=Jailhouse Rock [Jive 42 bpm]
TTITLE9=Play The Music [Jive 42 bpm]
TTITLE10=The Wanderer [Jive 28 bpm]
TTITLE11=What Do You Wanna Make... [Jive 28 bpm]
TTITLE12=Swing Me Baby [Jive 46 bpm]
TTITLE13=Ain't Got No Home [Jive 40 bpm]
TTITLE14=At The Hop, Rock And Roll Is Here To Stay [Jive 48 bpm]
TTITLE15=Saturday Night At The Movies [Jive 32 bpm]
TTITLE16=Don't Throw Our Love Away [Jive 30 bpm]
TTITLE17=See You Later Alligator, R.O.C.K., Rock Around The Clock [Jiv
TTITLE17=e 44 bpm]
EXTD=
EXTT0=
EXTT1=
EXTT2=
EXTT3=
EXTT4=
EXTT5=
EXTT6=
EXTT7=
EXTT8=
EXTT9=
EXTT10=
EXTT11=
EXTT12=
EXTT13=
EXTT14=
EXTT15=
EXTT16=
EXTT17=
PLAYORDER=
